# xmcd CD database file
#
# Track frame offsets:
#	150
#	15914
#	34414
#	55458
#	74325
#	92041
#	113506
#	134905
#	150836
#	166004
#	182736
#	204443
#
# Disc length: 2988 seconds
#
# Revision: 0
# Processed by: cddbd v1.5.2PL0 Copyright (c) Steve Scherf et al.
# Submitted via: CDex 1.51
#
DISCID=980baa0c
DTITLE=Tom Gaebel - Good Life
DYEAR=2007
DGENRE=Jazz
TTITLE0=It's a Good Life
TTITLE1=Never Ever
TTITLE2=Finally
TTITLE3=My Song to You (Ein Trauriger Fall)
TTITLE4=In the City
TTITLE5=Dancing Señorita
TTITLE6=Catch Me If You Can
TTITLE7=Such a Happy Day (Saludos Amigos)
TTITLE8=If There Wasn't You
TTITLE9=Still I'm In Love With You
TTITLE10=Springtime
TTITLE11=One Day I'll Fly Away
EXTD=YEAR: 2007
EXTT0=
EXTT1=
EXTT2=
EXTT3=
EXTT4=
EXTT5=
EXTT6=
EXTT7=
EXTT8=
EXTT9=
EXTT10=
EXTT11=
PLAYORDER=
